name Walk9.mot
datacolumns 19
datarows 12
range 3.17000000 3.18100000
endheader

                time	   L_ground_force_vx	   L_ground_force_vy	   L_ground_force_vz	   L_ground_force_px	   L_ground_force_py	   L_ground_force_pz	   R_ground_force_vx	   R_ground_force_vy	   R_ground_force_vz	   R_ground_force_px	   R_ground_force_py	   R_ground_force_pz	   L_ground_torque_x	   L_ground_torque_y	   L_ground_torque_z	   R_ground_torque_x	   R_ground_torque_y	   R_ground_torque_z	
          3.17000000	          0.00000000	          0.00000000	          0.00000000	          0.00000000	          0.00000000	          0.00000000	          0.00000000	          0.00000000	          0.00000000	          0.00000000	          0.00000000	          0.00000000	          0.00000000	          0.00000000	          0.00000000	          0.00000000	          0.00000000	          0.00000000	
          3.17100000	          0.00000000	          0.00000000	          0.00000000	          0.00000000	          0.00000000	          0.00000000	          0.00000000	          0.00000000	          0.00000000	          0.00000000	          0.00000000	          0.00000000	          0.00000000	          0.00000000	          0.00000000	          0.00000000	          0.00000000	          0.00000000	
          3.17200000	          0.00000000	          0.00000000	          0.00000000	          0.00000000	          0.00000000	          0.00000000	          0.00000000	          0.00000000	          0.00000000	          0.00000000	          0.00000000	          0.00000000	          0.00000000	          0.00000000	          0.00000000	          0.00000000	          0.00000000	          0.00000000	
          3.17300000	          0.00000000	          0.00000000	          0.00000000	          0.00000000	          0.00000000	          0.00000000	          0.00000000	          0.00000000	          0.00000000	          0.00000000	          0.00000000	          0.00000000	          0.00000000	          0.00000000	          0.00000000	          0.00000000	          0.00000000	          0.00000000	
          3.17400000	          0.00000000	          0.00000000	          0.00000000	          0.00000000	          0.00000000	          0.00000000	          0.00000000	          0.00000000	          0.00000000	          0.00000000	          0.00000000	          0.00000000	          0.00000000	          0.00000000	          0.00000000	          0.00000000	          0.00000000	          0.00000000	
          3.17500000	          0.00000000	          0.00000000	          0.00000000	          0.00000000	          0.00000000	          0.00000000	          0.00000000	          0.00000000	          0.00000000	          0.00000000	          0.00000000	          0.00000000	          0.00000000	          0.00000000	          0.00000000	          0.00000000	          0.00000000	          0.00000000	
          3.17600000	          0.00000000	          0.00000000	          0.00000000	          0.00000000	          0.00000000	          0.00000000	         -9.60807831	         15.04159143	         -0.65574621	         -0.28863883	          0.00000000	         -0.04692212	          0.00000000	          0.00000000	          0.00000000	          0.00000000	         -0.02227447	          0.00000000	
          3.17700000	          0.00000000	          0.00000000	          0.00000000	          0.00000000	          0.00000000	          0.00000000	        -15.63974529	         26.29096982	         -0.64645958	         -0.28678560	          0.00000000	         -0.04790637	          0.00000000	          0.00000000	          0.00000000	          0.00000000	         -0.02791960	          0.00000000	
          3.17800000	          0.00000000	          0.00000000	          0.00000000	          0.00000000	          0.00000000	          0.00000000	        -22.65740869	         40.87212188	         -0.38023815	         -0.28550808	          0.00000000	         -0.04781022	          0.00000000	          0.00000000	          0.00000000	          0.00000000	          0.00199796	          0.00000000	
          3.17900000	          0.00000000	          0.00000000	          0.00000000	          0.00000000	          0.00000000	          0.00000000	        -30.31471062	         59.03560060	          0.18721347	         -0.28475203	          0.00000000	         -0.04712043	          0.00000000	          0.00000000	          0.00000000	          0.00000000	          0.07887740	          0.00000000	
          3.18000000	          0.00000000	          0.00000000	          0.00000000	          0.00000000	          0.00000000	          0.00000000	        -38.13542486	         80.64941614	          1.01616949	         -0.28450080	          0.00000000	         -0.04628654	          0.00000000	          0.00000000	          0.00000000	          0.00000000	          0.19201291	          0.00000000	
          3.18100000	          0.00000000	          0.00000000	          0.00000000	          0.00000000	          0.00000000	          0.00000000	        -45.45577895	        104.83085526	          1.99305504	         -0.28458991	          0.00000000	         -0.04561232	          0.00000000	          0.00000000	          0.00000000	          0.00000000	          0.31485231	          0.00000000	
